    <svg width="1300px" height="700px" xmlns="http://www.w3.org/2000/svg">

      
        <circle  cx="310" cy="360" r="150" fill="orange" />
        <circle  cx="295" cy="330" r="65" fill="white" />
        <circle  cx="365" cy="330" r="65" fill="white" />
        <circle  cx="385" cy="330" r="12"  />
        <circle  cx="305" cy="330" r="12"  />
        <circle  cx="335" cy="395" r="16"  />
        <ellipse cx="315" cy="440" rx="25" ry="12" fill="red" />
        <ellipse cx="145" cy="430" rx="95" ry="35" fill="orange" transform="rotate(20 250 280)" />
        
        <circle  cx="700" cy="360" r="150" fill="yellow" />
        <circle  cx="645" cy="330" r="65" fill="white" />
        <circle  cx="735" cy="330" r="65" fill="white" />
        <circle  cx="630" cy="330" r="12"  />
        <circle  cx="725" cy="330" r="12"  />
        <ellipse cx="690" cy="440" rx="13" ry="25" fill="red" />
  
        <svg x="150" y="145" xlmns="http://www.w3.org/2000/svg">      
              <polygon points='100,80 40,125,40,75' fill="orange" />
           
            </svg>
            <svg x="154" y="149" xlmns="http://www.w3.org/2000/svg">      
               
                <polygon points='90,80 40,120,40,75' />
              </svg>

              <svg x="320" y="69" xlmns="http://www.w3.org/2000/svg">      
                <polygon points='55,110 80 171,5,149' fill="orange" />
             
              </svg>
              <svg x="324" y="65" xlmns="http://www.w3.org/2000/svg">      
                 
                <polygon points='49,121 67,165,15,147'  />
                </svg>

                <svg x="4" y="280" xlmns="http://www.w3.org/2000/svg">      
                    <polygon points='60,70 30,110,6,70' fill="white" transform="rotate(-5 10 20)" />
                   
                    </svg>

            </svg>